<svg width="860" height="625" viewBox="0 0 860 625" fill="none" xmlns="http://www.w3.org/2000/svg">
<path d="M42.92 511.16H50.37L92.81 624.54H85.36L70.62 585.34H22.51L7.93 624.54H0.479996L42.92 511.16ZM68.19 578.87L51.02 532.87C49.24 528.01 46.81 519.26 46.81 519.26H46.49C46.49 519.26 44.06 528.01 42.28 532.87L24.95 578.87H68.19Z" fill="black"/>
<path d="M117.75 511.16H124.71V618.06H178.81V624.54H117.75V511.16Z" fill="black"/>
<path d="M203.27 511.16H265.31V517.64H210.24V564.13H255.43V570.61H210.24V618.07H268.39V624.55H203.28V511.16H203.27Z" fill="black"/>
<path d="M326.04 511.16H333.49L375.93 624.54H368.48L353.74 585.34H305.63L291.05 624.54H283.6L326.04 511.16ZM351.31 578.87L334.14 532.87C332.36 528.01 329.93 519.26 329.93 519.26H329.61C329.61 519.26 327.18 528.01 325.4 532.87L308.07 578.87H351.31Z" fill="black"/>
<path d="M400.87 511.16H407.35L471.98 600.08C475.7 605.26 481.21 614.33 481.21 614.33H481.53C481.53 614.33 480.72 605.75 480.72 600.08V511.16H487.68V624.54H481.2L416.57 535.62C412.84 530.44 407.34 521.37 407.34 521.37H407.02C407.02 521.37 407.83 529.95 407.83 535.62V624.54H400.87V511.16V511.16Z" fill="black"/>
<path d="M480.72 511.16H487.2L551.83 600.08C555.56 605.26 561.06 614.33 561.06 614.33H561.38C561.38 614.33 560.57 605.75 560.57 600.08V511.16H567.53V624.54H561.05L496.42 535.62C492.7 530.44 487.19 521.37 487.19 521.37H486.87C486.87 521.37 487.68 529.95 487.68 535.62V624.54H480.72V511.16Z" fill="black"/>
<g opacity="0.5">
<path opacity="0.5" d="M601.83 511.16H608.79V618.06H662.89V624.54H601.83V511.16V511.16Z" fill="black"/>
<path opacity="0.5" d="M713.59 511.16H721.04L763.48 624.54H756.03L741.29 585.34H693.18L678.6 624.54H671.15L713.59 511.16ZM738.86 578.87L721.69 532.87C719.91 528.01 717.48 519.26 717.48 519.26H717.16C717.16 519.26 714.73 528.01 712.95 532.87L695.62 578.87H738.86Z" fill="black"/>
<path opacity="0.5" d="M788.42 511.16H826.48C843 511.16 855.15 522.17 855.15 539.51C855.15 551.82 849.16 560.08 840.41 564.29V564.61C851.59 567.69 859.68 578.7 859.68 593.28C859.68 612.23 846.24 624.54 828.1 624.54H788.42V511.16ZM826.32 561.7C838.95 561.7 847.86 552.95 847.86 539.51C847.86 526.23 839.44 517.64 826.16 517.64H795.39V561.7H826.32ZM827.46 618.07C842.69 618.07 852.4 608.68 852.4 593.29C852.4 577.9 841.87 568.18 827.29 568.18H795.38V618.07H827.46Z" fill="black"/>
</g>
<path d="M268.2 235.18C281.886 235.18 292.98 224.086 292.98 210.4C292.98 196.714 281.886 185.62 268.2 185.62C254.514 185.62 243.42 196.714 243.42 210.4C243.42 224.086 254.514 235.18 268.2 235.18Z" fill="#FFA92B"/>
<path d="M274.12 110.76C299.884 110.76 320.77 89.8741 320.77 64.11C320.77 38.3459 299.884 17.46 274.12 17.46C248.356 17.46 227.47 38.3459 227.47 64.11C227.47 89.8741 248.356 110.76 274.12 110.76Z" fill="#FFA92B"/>
<path d="M276.17 403.26C301.934 403.26 322.82 382.374 322.82 356.61C322.82 330.846 301.934 309.96 276.17 309.96C250.406 309.96 229.52 330.846 229.52 356.61C229.52 382.374 250.406 403.26 276.17 403.26Z" fill="#FFA92B"/>
<path d="M401.02 285.46C442.988 285.46 477.01 251.438 477.01 209.47C477.01 167.502 442.988 133.48 401.02 133.48C359.052 133.48 325.03 167.502 325.03 209.47C325.03 251.438 359.052 285.46 401.02 285.46Z" fill="#FFA92B"/>
<path d="M306.25 333.07C303.9 333 301.58 332.02 299.85 330.16C296.43 326.48 296.65 320.72 300.33 317.3L361.57 260.51C365.26 257.1 371.01 257.31 374.43 260.99C377.85 264.67 377.63 270.43 373.95 273.85L312.71 330.64C310.88 332.34 308.55 333.14 306.25 333.07Z" fill="#FFA92B"/>
<path d="M352.88 158.94C350.53 158.87 348.21 157.89 346.48 156.03L289.69 94.79C286.27 91.11 286.49 85.35 290.17 81.93C293.86 78.52 299.61 78.7301 303.03 82.4101L359.82 143.65C363.24 147.33 363.02 153.09 359.34 156.51C357.52 158.21 355.19 159.01 352.88 158.94Z" fill="#FFA92B"/>
<path d="M432.1 65.29C445.786 65.29 456.88 54.1956 456.88 40.51C456.88 26.8244 445.786 15.73 432.1 15.73C418.414 15.73 407.32 26.8244 407.32 40.51C407.32 54.1956 418.414 65.29 432.1 65.29Z" fill="#005BB6"/>
<path d="M578.39 93.31C604.154 93.31 625.04 72.4241 625.04 46.66C625.04 20.8959 604.154 0.0100098 578.39 0.0100098C552.626 0.0100098 531.74 20.8959 531.74 46.66C531.74 72.4241 552.626 93.31 578.39 93.31Z" fill="#005BB6"/>
<path d="M285.89 94.91C311.654 94.91 332.54 74.0241 332.54 48.26C332.54 22.4959 311.654 1.60999 285.89 1.60999C260.126 1.60999 239.24 22.4959 239.24 48.26C239.24 74.0241 260.126 94.91 285.89 94.91Z" fill="#005BB6"/>
<path d="M432.83 249.32C474.798 249.32 508.82 215.298 508.82 173.33C508.82 131.362 474.798 97.34 432.83 97.34C390.862 97.34 356.84 131.362 356.84 173.33C356.84 215.298 390.862 249.32 432.83 249.32Z" fill="#005BB6"/>
<path d="M374.82 162.61C372.23 162.53 369.67 161.45 367.77 159.4L305.41 91.95C301.66 87.89 301.91 81.56 305.97 77.81C310.03 74.06 316.36 74.31 320.11 78.37L382.47 145.82C386.22 149.88 385.97 156.21 381.91 159.96C379.91 161.81 377.35 162.69 374.82 162.61Z" fill="#005BB6"/>
<path d="M495.08 149.78C492.72 149.83 490.35 148.98 488.53 147.2C484.93 143.69 484.86 137.93 488.36 134.33L546.64 74.51C550.15 70.92 555.91 70.84 559.51 74.34C563.11 77.84 563.18 83.61 559.68 87.21L501.4 147.03C499.67 148.81 497.38 149.73 495.08 149.78Z" fill="#005BB6"/>
<path d="M599.18 234.84C612.866 234.84 623.96 223.746 623.96 210.06C623.96 196.374 612.866 185.28 599.18 185.28C585.494 185.28 574.4 196.374 574.4 210.06C574.4 223.746 585.494 234.84 599.18 234.84Z" fill="#F04670"/>
<path d="M594.79 110.36C620.554 110.36 641.44 89.4741 641.44 63.71C641.44 37.9459 620.554 17.06 594.79 17.06C569.026 17.06 548.14 37.9459 548.14 63.71C548.14 89.4741 569.026 110.36 594.79 110.36Z" fill="#F04670"/>
<path d="M589.66 402.82C615.424 402.82 636.31 381.934 636.31 356.17C636.31 330.406 615.424 309.52 589.66 309.52C563.896 309.52 543.01 330.406 543.01 356.17C543.01 381.934 563.896 402.82 589.66 402.82Z" fill="#F04670"/>
<path d="M466.38 283.72C508.348 283.72 542.37 249.698 542.37 207.73C542.37 165.762 508.348 131.74 466.38 131.74C424.412 131.74 390.39 165.762 390.39 207.73C390.39 249.698 424.412 283.72 466.38 283.72Z" fill="#F04670"/>
<path d="M506.275 258.089L491.685 273.495L552.32 330.923L566.911 315.517L506.275 258.089Z" fill="#F04670"/>
<path d="M556.204 85.4247L498.775 146.069L514.183 160.659L571.611 100.016L556.204 85.4247Z" fill="#F04670"/>
<path d="M434.52 402.7C448.106 402.7 459.12 391.686 459.12 378.1C459.12 364.514 448.106 353.5 434.52 353.5C420.934 353.5 409.92 364.514 409.92 378.1C409.92 391.686 420.934 402.7 434.52 402.7Z" fill="#5BCE66"/>
<path d="M289.31 417.64C314.886 417.64 335.62 396.906 335.62 371.33C335.62 345.754 314.886 325.02 289.31 325.02C263.734 325.02 243 345.754 243 371.33C243 396.906 263.734 417.64 289.31 417.64Z" fill="#5BCE66"/>
<path d="M579.72 417.37C605.296 417.37 626.03 396.636 626.03 371.06C626.03 345.484 605.296 324.75 579.72 324.75C554.144 324.75 533.41 345.484 533.41 371.06C533.41 396.636 554.144 417.37 579.72 417.37Z" fill="#5BCE66"/>
<path d="M434.4 321.67C476.07 321.67 509.85 287.89 509.85 246.22C509.85 204.55 476.07 170.77 434.4 170.77C392.73 170.77 358.95 204.55 358.95 246.22C358.95 287.89 392.73 321.67 434.4 321.67Z" fill="#5BCE66"/>
<path d="M551.37 342.14C549.46 342.08 547.57 341.34 546.1 339.9L494.37 289.33C491.26 286.29 491.2 281.3 494.24 278.19C497.29 275.08 502.28 275.02 505.38 278.06L557.11 328.63C560.22 331.67 560.28 336.66 557.24 339.77C555.64 341.41 553.49 342.21 551.37 342.14Z" fill="#5BCE66"/>
<path d="M317.48 342.35C315.52 342.29 313.58 341.5 312.09 339.99C309.04 336.88 309.09 331.89 312.2 328.84L363.83 278.18C366.94 275.13 371.93 275.18 374.98 278.29C378.03 281.4 377.98 286.39 374.87 289.44L323.24 340.1C321.64 341.67 319.55 342.42 317.48 342.35Z" fill="#5BCE66"/>
</svg>
